<?xml version="1.0" encoding="UTF-8"?><svg id="b" xmlns="http://www.w3.org/2000/svg" viewBox="0 0 159.6 62.41"><g id="c"><path d="m99.4,31.01l-12.9,13.2h0c-.2.2-.5.3-.7.4-.3.1-.7.2-1,.2s-.7-.1-1-.2c-.2-.1-.5-.2-.7-.4h0l-14.4-14.4.6-.6h0c.2-.2,1-.9,1.8-.9.4,0,.7.1,1,.2h0l8.5,8.6.1-.1c.6.6,1.4,1.1,2.6,1.1s2.6-.9,3.1-1.5l9.4-9.4-7.8-8.2c-.6-.6-1.4-1-2.7-1-.9,0-2.1.2-2.9.6-.6-.4-1.3-.6-2.2-.6s-2.1.2-2.9.6c-.6-.4-1.3-.6-2.2-.6-1,0-2.2.2-3,.7-.6-.4-1.3-.6-2.3-.7h-.6c-1.3.1-2.2.4-2.7,1l-12.9,13,1.3,1.3,13-13h0c.2-.2.5-.3.7-.4.3-.1.7-.2,1-.2s.7.1,1,.2c.2.1.5.2.7.4h0l14.2,14.4-.6.6h0c-.2.2-1,.9-1.8.9-1,0-1.5-.7-1.8-.9h0l-7.4-7.5c-.6-.6-1.4-1.5-3-1.5-1.2,0-2.6.9-3.1,1.5l-9.4,9.4,7.8,8.2c.6.6,1.4,1,2.7,1,.9,0,2-.2,2.9-.6.6.4,1.3.6,2.2.6s2.1-.2,2.9-.6c.6.4,1.3.6,2.2.6,1,0,2.2-.2,3-.7.6.4,1.3.6,2.3.7h.6c1.3-.1,2.2-.4,2.7-1l12.8-13-1.1-1.4Zm-14.2-11.2c.6,0,1,.2,1.5.6h0l1.5,1.5.2.2,4.9,5-1.2,1.2-8.2-8.3c.3-.2.8-.2,1.3-.2Zm-5,0c.6,0,1,.2,1.5.6h0l1.5,1.5.2.2,7.4,7.5-1.2,1.2-10.8-10.8c.4-.2.9-.2,1.4-.2Zm-6.6.2c.5-.2,1-.3,1.5-.2.6,0,1,.2,1.5.6h0l1.5,1.5.2.2,9.9,10-1.4,1.4-13.2-13.5Zm-4.4,24.7c-.6-.1-1-.2-1.5-.6h0l-1.4-1.4-.2-.2-4.9-5,1.2-1.2,8.2,8.3c-.5.1-1,.2-1.4.1Zm5,0c-.6-.1-1-.2-1.5-.6h0l-1.5-1.5-.1-.2-7.4-7.5,1.1-1.2,10.8,10.9c-.5.1-1,.2-1.4.1Zm5,0c-.6-.1-1-.2-1.5-.6h0l-1.5-1.5-.2-.2-9.8-9.9,1.4-1.4,13.2,13.4c-.5.2-1,.3-1.6.2Z" style="fill:#0098d8; stroke-width:0px;"/><path d="m40.9,53.21h0q-.1,0,0,0c-.1-.1-.1-.2,0-.2h.2c.5-.1.9-.5.9-1v-.3c0-.6-.5-1-1-1h-4s-.1,0-.1.1v.7h.1c.2,0,.5.2.5.3v3.1c0,.2-.2.2-.5.3h-.1v.7s0,.1.1.1h4c.7,0,1.2-.7,1.2-1.2v-.5c-.1-.7-.4-1.1-1.3-1.1Zm-.2,1.2c0,.5-.3.6-.7.6h-1.2v-3.6h1.2c.2,0,.5.2.5.5v.3c0,.2-.2.5-.5.5h-.5c-.1,0-.2.1-.2.2v.6c0,.1.1.2.2.2h.6c.6,0,.7.3.7.5l-.1.2h0Z" style="fill:#231f20; stroke-width:0px;"/><path d="m111.8,53.21h0q-.1,0,0,0c-.1-.1-.1-.2,0-.2h.2c.5-.1.9-.5.9-1v-.3c0-.6-.5-1-1-1h-4s-.1,0-.1.1v.7h.1c.2,0,.5.2.5.3v3.1c0,.2-.2.2-.5.3h-.1v.7s0,.1.1.1h4c.7,0,1.2-.7,1.2-1.2v-.5c-.1-.7-.5-1.1-1.3-1.1Zm-.2,1.2c0,.5-.3.6-.7.6h-1.2v-3.6h1.2c.2,0,.5.2.5.5v.3c0,.2-.2.5-.5.5h-.5c-.1,0-.2.1-.2.2v.6c0,.1.1.2.2.2h.6c.6,0,.7.3.7.5l-.1.2h0Z" style="fill:#231f20; stroke-width:0px;"/><path d="m52.6,50.71h-1.6q-.2,0-.2.2v.4c0,.1.2.1.2.1,0,0,.1,0,.2.1v.1s0,.1-.1.2c-.1.2-.4.6-.6.9,0,.1-.1.1-.2.1h0c-.1,0-.2-.1-.2-.1l-.6-.9s-.1-.2,0-.3c0-.1.2-.1.2-.1q.1,0,.1-.2v-.3c0-.1,0-.2-.1-.2h-2c-.1,0-.2,0-.2.1v.4q0,.2.1.2c.2,0,.4.2.4.2l1.4,2v1.4c0,.1-.2.1-.2.2h-.2s-.1,0-.1.1h0v.6h0s0,.1.1.1h2.2s.1,0,.1-.1h0v-.6h0s0-.1-.1-.1h-.1c-.2,0-.4-.2-.4-.2v-1.2l1.1-1.8s.2-.2.2-.3l.2-.2h.2c.2,0,.2-.1.2-.2v-.4q.2-.2,0-.2Z" style="fill:#231f20; stroke-width:0px;"/><path d="m102,55.11v-1.1c0-.1-.1-.2-.2-.2h-.4c-.1,0-.2.1-.2.2v.2c0,.1,0,.2-.1.2-.1.2-.4.4-.5.4-.2.1-.6.1-.6.1h-.6q-.1-.1-.1-.2v-3c0-.2.3-.2.5-.3h.1v-.7s0-.1-.1-.1h-2s-.1,0-.1.1v.7h.1c.2,0,.5.2.5.3v3.1c0,.2-.3.2-.5.3h-.1v.7s0,.1.1.1h4c.1,0,.2-.1.2-.2v-.6h0Z" style="fill:#231f20; stroke-width:0px;"/><path d="m85.7,55.11v-1.1c0-.1-.1-.2-.2-.2h-.4c-.1,0-.2.1-.2.2v.2c0,.1,0,.2-.1.2-.1.2-.4.4-.5.4-.2.1-.6.1-.6.1h-.6q-.1-.1-.1-.2v-3c0-.2.3-.2.5-.3h.1v-.7s0-.1-.1-.1h-2.2s-.1,0-.1.1v.7h.1c.2,0,.5.2.5.3v3.1c0,.2-.3.2-.5.3h-.1v.7s0,.1.1.1h4c.1,0,.2-.1.2-.2l.2-.6h0Z" style="fill:#231f20; stroke-width:0px;"/><path d="m104.6,55.01h-.6c-.2,0-.3-.1-.4-.2-.1-.2,0-.6-.1-.7v-2.3c0-.2.3-.2.5-.3h.1v-.8s0-.1-.1-.1h-2.2s-.1,0-.1.1v.7h.1c.2,0,.5.2.5.3v2.2h0v.5s0,.6.1.9c.3.5.7.7,2.1.7h.2c1.4,0,1.8-.2,2.2-.7.1-.2.1-.9.1-.9v-.5h0v-2.2c0-.2.3-.2.5-.3h.1v-.7s0-.1-.1-.1h-2.3s-.1,0-.1.1v.7h.1c.2,0,.5.2.5.3v2.3c0,.2,0,.6-.1.7-.1.2-.3.2-.4.2-.2.1-.5.1-.6.1" style="fill:#231f20; stroke-width:0px;"/><path d="m97.4,54.51c0-.1-.1-.2-.2-.2h-.4c-.1,0-.2.1-.2.2v.1c0,.2-.3.5-.4.6-.2.1-.3.1-.7.1h0c-.4,0-.5,0-.7-.1s-.5-.4-.6-.6c-.1-.2-.2-.4-.2-1.2s.1-1.1.2-1.3c.2-.2.4-.6,1-.6s.9.2,1,.4c0,0,.2.2.2.3v.1c0,.1.1.2.2.2h.4c.1,0,.2-.1.2-.2v-1.2s0-.1-.1-.2c0,0-.6-.2-1.6-.2-.8,0-1.5.2-1.8.4s-1,.9-1,2.2.3,1.8.6,2.1c.3.2.7.6,1.6.6h1.2c1,0,1.3-.2,1.3-.2.1,0,.2-.1.2-.2l-.2-1.1Z" style="fill:#231f20; stroke-width:0px;"/><path d="m72.6,54.51h0v-1.3c0-.1-.1-.2-.2-.2h-1.8c-.1,0-.2.1-.2.2h0v.5c0,.1.1.2.2.2h.7v1.1l-.1.1c-.2.1-.3.1-.7.1h0c-.4,0-.5,0-.7-.1s-.5-.4-.6-.6c-.1-.2-.2-.4-.2-1.2s.1-1.1.2-1.3c.2-.2.4-.6,1-.6s.9.2,1,.4c0,0,.2.2.2.3v.1c0,.1.1.2.2.2h.4c.1,0,.2-.1.2-.2v-1.2s0-.1-.1-.2c0,0-.6-.2-1.6-.2-.8,0-1.5.2-1.8.4s-1,.9-1,2.2.3,1.8.6,2.1c.3.2.7.6,1.6.6h1.2c1,0,1.5-.2,1.5-.2.1,0,.2-.1.2-.2l-.2-1h0Z" style="fill:#231f20; stroke-width:0px;"/><path d="m46.9,51.01c-.3-.2-1-.4-1.8-.4h-.2c-.8,0-1.4.2-1.8.4-.3.2-1,.9-1,2.2s.3,1.8.6,2.1c.3.2.7.6,1.6.6h.7s.5,0,.6-.1c.9-.1,1.3-.4,1.6-.6.3-.3.6-.8.6-2.1.1-1.2-.6-1.8-.9-2.1Zm-.6,3.5c-.1.2-.4.6-.6.6-.2.1-.3.1-.7.1-.3,0-.5,0-.7-.1-.1-.1-.5-.4-.5-.6-.1-.2-.2-.4-.2-1.2s.1-1.1.2-1.3c.2-.2.4-.6,1-.6h.3c.7,0,.9.2,1,.6.1.2.2.5.2,1.3.2.8.1,1,0,1.2Z" style="fill:#231f20; stroke-width:0px;"/><path d="m75.3,55.21q0-.1,0,0c-.2-.1-.6-.2-.6-.3v-3c0-.2.3-.2.5-.3h.1v-.7s0-.1-.1-.1h-2.2s-.1,0-.1.1v.7h.1c.2,0,.5.2.5.3v3c0,.2-.3.2-.5.3h-.1v.7s0,.1.1.1h2.2s.1,0,.1-.1v-.7h0Z" style="fill:#231f20; stroke-width:0px;"/><path d="m81.3,55.21q-.1-.1,0,0c-.2-.1-.6-.2-.6-.3v-.7c0-.6-.2-1-1-1h0s-.1,0-.1-.1c0,0,0-.1.1-.1h.1c.5-.1.9-.5.9-1v-.3c0-.6-.5-1-1-1h-3.9s-.1,0-.1.1v.7h.1c.2,0,.5.2.5.3v3c0,.2-.3.2-.5.3h-.1v.7s0,.1.1.1h2.2s.1,0,.1-.1v-.7h-.1c-.2,0-.5-.2-.5-.3v-3c0-.1.1-.2.2-.2h1.1c.2,0,.5.2.5.5v.2c0,.2-.2.6-.5.6h-.7c-.1,0-.2.1-.2.2v.6c0,.1.1.2.2.2h.8c.6,0,.6.3.6.5v1.6c0,.1.2.1.2.1h1.6s.1,0,.1-.1l-.1-.8h0Z" style="fill:#231f20; stroke-width:0px;"/><path d="m53.8,53.41c.4.2,1.1.3,1.6.4s.7.3.6.7-.6.5-.9.6c0,0-.6,0-.9-.1l-.5-.5-.1-.2c0-.1-.1-.1-.2-.1h-.5q-.1,0-.1.1v1.4c0,.2.2.2.8.2h1.5s.6,0,1.1-.2c.4-.2.7-.9.7-1.3,0-.7-.1-1.1-.5-1.4-.4-.2-1.1-.3-1.6-.4-.5-.1-.9-.2-.9-.6s.6-.5.9-.6c0,0,.3,0,.6.1.1,0,.2.1.3.2.1.1.2.4.2.4,0,.1.1.2.2.2h.4q.2,0,.2-.2v-1.4c0-.1-.5-.1-.8-.1h-1.7s-.6,0-1,.3c-.2.2-.5.7-.5,1.2.3.6.3,1.1,1.1,1.3Z" style="fill:#231f20; stroke-width:0px;"/><path d="m86.7,53.41c.4.2,1.1.3,1.6.4.5.1.7.3.6.7s-.6.5-.8.6c0,0-.6,0-.9-.1l-.5-.5-.1-.2c0-.1-.1-.1-.2-.1h-.5q-.1,0-.1.1v1.4c0,.2.2.2.8.2h1.5s.6,0,1.1-.2c.4-.2.7-.9.7-1.3,0-.7-.1-1.1-.5-1.4-.4-.2-1.1-.3-1.6-.4-.5-.1-.9-.2-.9-.6s.6-.5.8-.6c0,0,.3,0,.6.1.1,0,.2.1.3.2.1.1.2.4.2.4,0,.1.1.2.2.2h.4q.2,0,.2-.2v-1.4c0-.1-.6-.1-.8-.1h-1.7s-.6,0-1,.3c-.2.2-.5.7-.5,1.2.3.6.4,1.1,1.1,1.3Z" style="fill:#231f20; stroke-width:0px;"/><path d="m114.1,53.41c.4.2,1.1.3,1.6.4s.7.3.6.7-.6.5-.9.6c0,0-.6,0-.9-.1l-.5-.5-.1-.2c0-.1-.1-.1-.2-.1h-.4q-.1,0-.1.1v1.4c0,.2.2.2.8.2h1.5s.6,0,1.1-.2c.4-.2.7-.9.7-1.3,0-.7-.1-1.1-.5-1.4-.4-.2-1.1-.3-1.6-.4-.5-.1-.9-.2-.9-.6s.6-.5.9-.6c0,0,.3,0,.6.1.1,0,.2.1.3.2.1.1.2.4.2.4,0,.1.1.2.2.2h.4q.2,0,.2-.2v-1.4c0-.1-.5-.1-.8-.1h-1.7s-.6,0-1,.3c-.2.2-.5.7-.5,1.2.2.6.3,1.1,1,1.3Z" style="fill:#231f20; stroke-width:0px;"/><path d="m65.7,55.51c0-.1-.1-.1-.2-.1s-.2-.1-.2-.1l-.6-.5c.1-.2.2-.3.2-.4.1-.2.1-.7.1-1,0-.2.1-.6,0-.6h-1s-.1,0-.1.1v.6c0,.2-.1.5-.2.7l-1.3-1c.7-.2,1.1-.9,1.1-1.3,0-.9-.8-1.2-1.8-1.2-1.2,0-2,.5-2,1.2,0,.2.1.4.2.6h.1l.3.3c-.6.4-.9.9-.9,1.4,0,1,.5,1.8,2.6,1.8.7,0,1.4-.2,2-.5l.2.1c.1.1.2.2.3.2h1.3c.1,0,.2,0,.2-.1h0c-.3.1-.3-.2-.3-.2Zm-3.9-4.1c.5,0,.7.2.7.5s-.6.6-.8.6h-.1c-.1,0-.2-.1-.2-.1-.2-.1-.4-.2-.4-.4,0-.4.3-.6.8-.6Zm.2,3.8c-1.1,0-1.3-.4-1.3-1,0-.3.2-.6.4-.8l2,1.6c-.2.2-.7.3-1.1.2Z" style="fill:#231f20; stroke-width:0px;"/><path d="m62.7,58.61c-.2-.2-.7-.3-1.4-.3h0c-.6,0-1.1.2-1.4.3-.2.2-.8.6-.8,1.7,0,1,.2,1.4.5,1.6.2.2.6.4,1.2.5h.8c.6-.1,1-.3,1.2-.5s.5-.6.5-1.6c.2-1-.3-1.5-.6-1.7Zm-.5,2.7c-.1.2-.3.4-.4.5q-.2.1-.6.1c-.2,0-.3,0-.6-.1-.1-.1-.3-.2-.4-.5-.1-.2-.1-.3-.1-.9s.1-.9.1-1c.2-.2.3-.4.8-.4h.4c.5,0,.7.2.8.4.1.1.1.4.1,1,.1.6,0,.7-.1.9Z" style="fill:#231f20; stroke-width:0px;"/><path d="m87.8,61.81h0l-.4-.2v-2.4c0-.1.2-.2.4-.2h0v-.5h-1.7v.5h0c.2,0,.4.2.4.2v2.4c0,.1-.2.2-.4.2h0v.5h1.7v-.5h0Z" style="fill:#231f20; stroke-width:0px;"/><path d="m85.9,61.81s-.1,0,0,0l-.4-.2v-.6c0-.4-.1-.7-.8-.7h0s-.1,0-.1-.1c0,0,0-.1.1-.1h.1c.4-.1.6-.4.6-.8v-.2c0-.4-.3-.8-.7-.8h-3.1v.4h0c.2,0,.4.2.4.2v2.4c0,.1-.2.2-.4.2h0v.5h1.7v-.5h0c-.2,0-.4-.2-.4-.2v-2.4c0-.1.1-.1.2-.2h1c.2,0,.4.2.4.3v.2c0,.1-.2.4-.4.4h-.6c-.1,0-.2.1-.2.2v.4c0,.1.1.2.2.2h.6c.4,0,.4.2.4.4v1.3c0,.1.2.1.2.1h1.3l-.1-.4h0Z" style="fill:#231f20; stroke-width:0px;"/><path d="m81.4,61.21c0-.1-.1-.2-.2-.2h-.3c-.1,0-.2.1-.2.2l-.1.2c0,.1-.1.1-.1.2-.1.2-1.6.1-1.6.1-.1,0-.1-.1-.1-.1v-1h1.2c.1,0,.2.1.2.2h.4v-1.1h-.4c0,.2-.1.2-.2.2h-1.1v-.8c0-.1.1,0,.1,0h1.1c.1,0,.3,0,.4.1,0,.1.1.2.1.2,0,.1.1.2.2.2h.3c.1,0,.2-.1.2-.2v-.7c0-.1-.1-.2-.2-.2h-3.3v.5h0c.2,0,.4.2.4.2v2.4c0,.1-.2.2-.4.2h0v.5h3.5c.1,0,.2-.1.2-.2v-.9h-.1Z" style="fill:#231f20; stroke-width:0px;"/><path d="m67,58.41h-3.3v.5h0c.2,0,.4.2.4.2v2.4c0,.1-.2.2-.4.2h0v.5h1.8v-.5h0c-.1,0-.2-.1-.3-.1h0v-1h1.1c.1,0,.2.1.2.2h.3v-1.1h-.4c0,.2-.1.2-.2.2h-1.1v-.9c0-.1.1,0,.1,0h1c.1,0,.3,0,.4.1,0,.1.1.2.1.2,0,.1.1.2.2.2h.3c.1,0,.2-.1.2-.2v-.7c-.3-.2-.4-.2-.4-.2Z" style="fill:#231f20; stroke-width:0px;"/><path d="m77.5,61.81h0s-.1,0,0,0l-.4-.2-.5-2.4c0-.1.1-.2.2-.2h0v-.5h-1.4l-.1.2-.2.8-.2.6-.2-.5-.1-.9-.1-.2h-1.4v.5h0c.2,0,.2.2.2.2l-.4,2.5c0,.1-.1.2-.2.2s-.1-.1-.2-.2l-1.2-3v-.1h-1.3v.1l-1.2,3c0,.1-.2.2-.4.2h0v.5h1.6v-.5h0c-.2,0-.3-.1-.3-.2l.2-.6h1.3l.2.6c.1.1-.1.2-.2.2h0v.5h2.7v-.5h0c-.1,0-.1-.1-.1-.2l.2-1.7v-.2l.1.2.3,1.2s.1.1.1.2.2.1.2.1h.4s.1,0,.2-.1.2-.2.2-.2l.4-1.3s0-.2.1-.2.1.2.1.2l.2,1.7c0,.1,0,.2-.2.2h0v.5h1.7l-.3-.5Zm-6.7-1.6s-.1,0,0,0h-.7v-.1l.3-.9.4,1h0Z" style="fill:#231f20; stroke-width:0px;"/><path d="m95.2,61.81h0c-.2-.1-.4-.2-.4-.3l-1.2-3v-.1h-1.3l-.1.1-1,2.6s-.2.5-.5.6c-.2.1-.4.1-.7.1h0q-.3,0-.6-.1c-.1-.1-.3-.2-.4-.5-.1-.2-.1-.3-.1-.9s.1-.9.1-1c.2-.2.3-.4.8-.4s.6.2.7.3c0,0,.2.1.2.2v.1c0,.1.1.2.2.2h.3c.1,0,.2-.1.2-.2v-1s0-.1-.1-.2c0,0-.5-.2-1.2-.2-.6,0-1.1.2-1.4.3-.2.2-.8.6-.8,1.7,0,1,.2,1.4.5,1.6s.5.3,1,.4h3v-.5h0c-.2,0-.3-.1-.3-.2l.2-.6h1.3l.2.6c.1.1-.1.2-.2.2h0v.5h1.8l-.2-.3s.1,0,0,0Zm-2-1.6s-.1,0,0,0h-.7v-.1l.3-.9.4,1h0Z" style="fill:#231f20; stroke-width:0px;"/><path d="m3.6,5.51v-1.6h3.4v4.5h-.8l-.4-.9c-.6.8-1.2,1.1-2.3,1.1-2.5,0-3.5-2.1-3.5-4.2C0,2.11,1.1,0,3.7,0c1.9-.1,3.1,1,3.4,2.8l-1.9.2c-.1-.8-.6-1.5-1.5-1.5-1.4,0-1.6,1.8-1.6,2.9s.3,2.6,1.7,2.6c.9,0,1.4-.6,1.4-1.4l-1.6-.1h0Z" style="fill:#231f20; stroke-width:0px;"/><path d="m10.1,8.51h-2V0h3.5C12.3,0,13.1,0,13.8.41c.7.5,1,1.3,1,2.1,0,1-.6,1.8-1.4,2.2l1.5,3.7h-2.2l-1.3-3.4h-1.4l.1,3.5h0Zm0-4.8h1c.4,0,.9,0,1.2-.2s.5-.6.5-1c0-.3-.2-.7-.5-.9s-.9-.2-1.3-.2h-1l.1,2.3h0Z" style="fill:#231f20; stroke-width:0px;"/><path d="m17.7,1.71v1.7h3.2v1.6h-3.2v1.8h4.1v1.6h-6V0h6v1.6l-4.1.1h0Z" style="fill:#231f20; stroke-width:0px;"/><path d="m29.8,8.51h-2.2l-.5-1.8h-2.7l-.6,1.8h-1.8L24.8.11h2.3l2.7,8.4Zm-3.1-3.3l-.9-3-1,3h1.9Z" style="fill:#231f20; stroke-width:0px;"/><path d="m35.3,1.71h-2.1v6.7h-2V1.71h-2.2V0h6.2v1.7h.1Z" style="fill:#231f20; stroke-width:0px;"/><path d="m40,1.71v1.9h3.2v1.6h-3.2v3.3h-2V0h6v1.6l-4,.1h0Z" style="fill:#231f20; stroke-width:0px;"/><path d="m51.3,5.11c0,.9,0,1.8-.7,2.6-.6.6-1.7.9-2.6.9s-1.9-.2-2.6-.7c-.8-.7-.9-1.7-.9-2.7V0h2.2v5.1c0,.4,0,1,.2,1.3.2.5.8.6,1.3.6.4,0,1-.2,1.2-.5.2-.4.2-1,.2-1.4V.11h1.7s0,5,0,5Z" style="fill:#231f20; stroke-width:0px;"/><path d="m58.2,1.71h-2.1v6.7h-2V1.71h-2.2V0h6.2c.1,0,.1,1.7.1,1.7Z" style="fill:#231f20; stroke-width:0px;"/><path d="m65.8,5.11c0,.9,0,1.8-.7,2.6-.6.6-1.7.9-2.6.9s-1.9-.2-2.6-.7c-.9-.7-.9-1.7-.9-2.7V0h2.2v5.1c0,.4,0,1,.2,1.3.2.5.8.6,1.3.6.4,0,1-.2,1.2-.5.2-.4.2-1,.2-1.4V.11h1.7c0-.1,0,5,0,5Z" style="fill:#231f20; stroke-width:0px;"/><path d="m69,8.51h-2V0h3.5c.7,0,1.5,0,2.2.4.7.5,1,1.3,1,2.1,0,1-.6,1.8-1.4,2.2l1.5,3.6h-2.2l-1.3-3.4h-1.4l.1,3.6h0Zm0-4.8h1c.4,0,.9,0,1.2-.2s.5-.6.5-1c0-.3-.2-.7-.5-.9s-.9-.2-1.3-.2h-1l.1,2.3h0Z" style="fill:#231f20; stroke-width:0px;"/><path d="m77,1.71v1.7h3.2v1.6h-3.2v1.8h4.1v1.6h-6V0h6v1.6l-4.1.1h0Z" style="fill:#231f20; stroke-width:0px;"/><path d="m86.2,2.51c-.2-.7-.7-1-1.4-1-.6,0-1.2.2-1.2.8s.7.8,1.2.9c.7.2,1.6.3,2.2.7.7.5,1.1,1.1,1.1,2,0,.8-.4,1.6-1,2.1-.6.6-1.6.7-2.5.7-1.6,0-3-.7-3.4-2.3l1.8-.4c.2.9.9,1.2,1.8,1.2.6,0,1.3-.2,1.3-.9s-1-.8-1.4-1c-1.5-.3-3-.7-3-2.6,0-.8.3-1.4.9-2,.6-.5,1.4-.7,2.1-.7,1.4,0,2.6.5,3.2,2l-1.7.5Z" style="fill:#231f20; stroke-width:0px;"/><path d="m96.2,2.51c-.2-.7-.7-1-1.4-1-.6,0-1.2.2-1.2.8s.7.8,1.2.9c.7.2,1.6.3,2.2.7.7.5,1.1,1.1,1.1,2,0,.8-.4,1.6-1,2.1-.6.6-1.6.7-2.5.7-1.6,0-3-.7-3.4-2.3l1.8-.4c.2.9.9,1.2,1.8,1.2.6,0,1.3-.2,1.3-.9s-1-.8-1.4-1c-1.5-.3-3-.7-3-2.6,0-.8.3-1.4.9-2,.6-.5,1.4-.7,2.1-.7,1.4,0,2.6.5,3.2,2l-1.7.5Z" style="fill:#231f20; stroke-width:0px;"/><path d="m104.6,1.71h-2.1v6.7h-2V1.71h-2.2V0h6.2v1.7h.1Z" style="fill:#231f20; stroke-width:0px;"/><path d="m111.4,8.51h-2.2l-.4-1.8h-2.7l-.6,1.8h-1.7L106.5.11h2.3l2.6,8.4Zm-3-3.3l-.9-3-1,3h1.9Z" style="fill:#231f20; stroke-width:0px;"/><path d="m113.9,8.51h-2V0h3.5c.7,0,1.5,0,2.2.4.7.5,1,1.3,1,2.1,0,1-.6,1.8-1.4,2.2l1.5,3.7h-2.1l-1.3-3.4h-1.4v3.5h0Zm0-4.8h1c.4,0,.9,0,1.2-.2s.5-.6.5-1c0-.3-.2-.7-.5-.9s-.9-.2-1.3-.2h-1l.1,2.3h0Z" style="fill:#231f20; stroke-width:0px;"/><path d="m125.4,1.71h-2.1v6.7h-2V1.71h-2.2V0h6.2v1.7h.1Z" style="fill:#231f20; stroke-width:0px;"/><path d="m135.4,8.51h-1.9v-3.5h-2.7v3.4h-2V0h2v3.3h2.6V0h2v8.5h0Z" style="fill:#0098d8; stroke-width:0px;"/><path d="m138.5,1.71v1.7h3.2v1.6h-3.2v1.8h4.1v1.6h-6V0h6v1.6l-4.1.1h0Z" style="fill:#0098d8; stroke-width:0px;"/><path d="m145.1,8.51h-2V0h3.5c.7,0,1.5,0,2.2.4.7.5,1,1.3,1,2.1,0,1-.6,1.8-1.4,2.2l1.5,3.7h-2.1l-1.3-3.4h-1.4v3.5h0Zm0-4.8h1c.4,0,.9,0,1.2-.2s.5-.6.5-1c0-.3-.2-.7-.5-.9s-.9-.2-1.3-.2h-1l.1,2.3h0Z" style="fill:#0098d8; stroke-width:0px;"/><path d="m153,1.71v1.7h3.2v1.6h-3.2v1.8h4.1v1.6h-6V0h6v1.6l-4.1.1h0Z" style="fill:#0098d8; stroke-width:0px;"/><path d="m157.7,8.51v-1.9h1.9v1.9h-1.9Z" style="fill:#231f20; stroke-width:0px;"/></g></svg>